<?xml version="1.0" encoding="utf-8"?>
<!-- Generator: Adobe Illustrator 24.0.0, SVG Export Plug-In . SVG Version: 6.00 Build 0)  -->
<svg version="1.1" id="Layer_1" xmlns="http://www.w3.org/2000/svg" xmlns:xlink="http://www.w3.org/1999/xlink" x="0px" y="0px"
	 viewBox="0 0 500 500" style="enable-background:new 0 0 500 500;" xml:space="preserve">
<style type="text/css">
	.st0{fill:#1E7098;}
	.st1{opacity:0.26;fill:#8FF4FF;enable-background:new    ;}
	.st2{fill:#FFFFFF;}
	.st3{fill:#33B0CE;}
	.st4{opacity:0.21;fill:#8FF4FF;enable-background:new    ;}
	.st5{opacity:0.14;fill:#8FF4FF;enable-background:new    ;}
	.st6{fill:#066D59;}
	.st7{fill:#04A879;}
	.st8{fill:#F06510;}
	.st9{opacity:0.23;fill:#FFB24D;enable-background:new    ;}
	.st10{fill:#2563EB;}
	.st11{opacity:0.11;fill:#92E5FF;enable-background:new    ;}
	.st12{fill:#14B8A6;}
	.st13{fill:#0A72A0;}
	.st14{opacity:0.21;fill:#57E7FF;enable-background:new    ;}
	.st15{opacity:0.16;fill:#50FFC9;enable-background:new    ;}
</style>
<g>
	<g>
		<g>
			<path class="st10" d="M321.7,86.9v272.5c-26.7,23.5-60,37.3-96,37.3c-38,0-72.9-15.4-100.3-41.2v-206c0-18.1,6.6-34.5,17.2-45.9
				c9.6-10.4,22.5-16.7,36.7-16.7H321.7z"/>
			<path class="st11" d="M321.7,86.9v211.8L142.7,103.6c9.6-10.4,22.5-16.7,36.7-16.7H321.7z"/>
			<g>
				<path class="st2" d="M280.1,139H170.8c-2.2,0-4-1.8-4-4v-0.4c0-2.2,1.8-4,4-4h109.3c2.2,0,4,1.8,4,4v0.4
					C284.1,137.2,282.3,139,280.1,139z"/>
				<path class="st2" d="M280.1,172.5H170.8c-2.2,0-4-1.8-4-4v-0.4c0-2.2,1.8-4,4-4h109.3c2.2,0,4,1.8,4,4v0.4
					C284.1,170.7,282.3,172.5,280.1,172.5z"/>
				<path class="st2" d="M280.1,206H170.8c-2.2,0-4-1.8-4-4v-0.4c0-2.2,1.8-4,4-4h109.3c2.2,0,4,1.8,4,4v0.4
					C284.1,204.2,282.3,206,280.1,206z"/>
				<path class="st2" d="M280.1,239.5H170.8c-2.2,0-4-1.8-4-4v-0.4c0-2.2,1.8-4,4-4h109.3c2.2,0,4,1.8,4,4v0.4
					C284.1,237.7,282.3,239.5,280.1,239.5z"/>
				<path class="st2" d="M280.1,273H170.8c-2.2,0-4-1.8-4-4v-0.4c0-2.2,1.8-4,4-4h109.3c2.2,0,4,1.8,4,4v0.4
					C284.1,271.2,282.3,273,280.1,273z"/>
				<path class="st2" d="M280.1,306.5H170.8c-2.2,0-4-1.8-4-4v-0.4c0-2.2,1.8-4,4-4h109.3c2.2,0,4,1.8,4,4v0.4
					C284.1,304.7,282.3,306.5,280.1,306.5z"/>
			</g>
		</g>
		<g>
			<g>
				<g>
					<g>
						<path class="st12" d="M425.8,207.7c0,9.2-0.6,18.3-1.8,27.2c-7.4,55.8-37.1,104.5-79.9,136.8c-34.4,26-77.2,41.4-123.7,41.4
							c-48.9,0-93.9-17.1-129.1-45.7c-17.8-14.4-33.1-31.7-45.3-51.2c13.6,11.2,28.9,20.5,45.3,27.6c23.1,9.9,48.5,15.5,75.2,15.5
							c81,0,150.3-50.7,177.6-122.2c2.7-7,5-14.2,6.8-21.6l-29.1-7.8l34.4-26.2l57.4-43.7C421.5,159.6,425.8,183.2,425.8,207.7z"/>
					</g>
					<g>
						<polygon class="st12" points="454.1,243 424,235 367.5,219.9 350.9,215.5 321.7,207.7 356.1,181.5 413.6,137.8 						"/>
					</g>
				</g>
			</g>
			<path class="st9" d="M234.3,363.2c-111.3,41.4-186.5-44.8-188.4-47c13.6,11.2,28.9,20.5,45.3,27.6c23.1,9.9,48.5,15.5,75.2,15.5
				c81,0,150.3-50.7,177.6-122.2c2.7-7,5-14.2,6.8-21.6l-29.1-7.8l34.4-26.2l57.4-43.7C413.6,137.8,387,306.5,234.3,363.2z"/>
		</g>
	</g>
</g>
</svg>
